<svg viewBox="0 0 896 896" xmlns="http://www.w3.org/2000/svg">
  <path fill-rule="evenodd" clip-rule="evenodd" d="M768.918 388.249C768.918 476.14 739.998 557.211 691.244 622.285L794.099 726.624C801.854 734.49 801.825 747.216 794.035 755.047L755.176 794.112C747.386 801.944 734.785 801.915 727.031 794.049L625.324 690.875C559.416 744.44 475.645 776.498 384.459 776.498C172.128 776.498 0 602.673 0 388.249C0 173.825 172.128 0 384.459 0C596.79 0 768.918 173.825 768.918 388.249ZM382.5 703C557.298 703 699 561.298 699 386.5C699 211.702 557.298 70 382.5 70C207.702 70 66 211.702 66 386.5C66 561.298 207.702 703 382.5 703Z"/>
  <path d="M269 321H496V341H269V321Z"/>
  <path d="M496 361H269V381H496V361Z"/>
  <path d="M269 401H496V421H269V401Z"/>
  <path d="M475.5 494C486.822 494 496 484.374 496 472.5C496 460.626 486.822 451 475.5 451C464.178 451 455 460.626 455 472.5C455 484.374 464.178 494 475.5 494Z"/>
  <path fill-rule="evenodd" clip-rule="evenodd" d="M233 261C221.954 261 213 269.954 213 281V518C213 529.046 221.954 538 233 538H531C542.046 538 551 529.046 551 518V281C551 269.954 542.046 261 531 261H233ZM261 284C249.954 284 241 292.954 241 304V496C241 507.046 249.954 516 261 516H504C515.046 516 524 507.046 524 496V304C524 292.954 515.046 284 504 284H261Z"/>
</svg>
