<svg viewBox="0 0 896 896" xmlns="http://www.w3.org/2000/svg">
  <path d="M624 40C624 62.0914 606.091 80 584 80C561.909 80 544 62.0914 544 40C544 17.9086 561.909 0 584 0C606.091 0 624 17.9086 624 40Z"/>
  <path d="M175 20C175 8.95431 183.954 0 195 0H446C457.046 0 466 8.95431 466 20V60C466 71.0457 457.046 80 446 80H195C183.954 80 175 71.0457 175 60V20Z"/>
  <path d="M625 229C625 251.091 607.091 269 585 269C562.909 269 545 251.091 545 229C545 206.909 562.909 189 585 189C607.091 189 625 206.909 625 229Z"/>
  <path d="M176 209C176 197.954 184.954 189 196 189H447C458.046 189 467 197.954 467 209V249C467 260.046 458.046 269 447 269H196C184.954 269 176 260.046 176 249V209Z"/>
  <path d="M625 560C625 582.091 607.091 600 585 600C562.909 600 545 582.091 545 560C545 537.909 562.909 520 585 520C607.091 520 625 537.909 625 560Z"/>
  <path d="M176 540C176 528.954 184.954 520 196 520H447C458.046 520 467 528.954 467 540V580C467 591.046 458.046 600 447 600H196C184.954 600 176 591.046 176 580V540Z"/>
  <path d="M625 760C625 782.091 607.091 800 585 800C562.909 800 545 782.091 545 760C545 737.909 562.909 720 585 720C607.091 720 625 737.909 625 760Z"/>
  <path d="M176 740C176 728.954 184.954 720 196 720H447C458.046 720 467 728.954 467 740V780C467 791.046 458.046 800 447 800H196C184.954 800 176 791.046 176 780V740Z"/>
  <path d="M0 377H800V412H0V377Z"/>
</svg>
