<svg viewBox="0 0 896 896" xmlns="http://www.w3.org/2000/svg">
  <path d="M502 192C334.121 192 198 328.121 198 496C198 663.879 334.121 800 502 800C669.879 800 806 663.879 806 496C806 328.121 669.879 192 502 192ZM502 748.429C362.621 748.429 249.571 635.379 249.571 496C249.571 356.621 362.621 243.571 502 243.571C641.379 243.571 754.429 356.621 754.429 496C754.429 635.379 641.379 748.429 502 748.429ZM534.368 480.257L517.132 476.254V385.121C542.918 388.65 558.864 404.8 561.579 424.614C561.918 427.329 564.225 429.296 566.939 429.296H597.407C600.596 429.296 603.107 426.514 602.836 423.325C598.696 381.05 563.886 353.907 517.404 349.225V327.036C517.404 324.05 514.961 321.607 511.975 321.607H492.907C489.921 321.607 487.479 324.05 487.479 327.036V349.429C439.436 354.111 401.843 380.643 401.843 430.179C401.843 476.05 435.636 498.171 471.125 506.654L487.886 510.929V607.761C457.893 603.757 441.064 587.743 437.604 566.164C437.196 563.586 434.889 561.686 432.243 561.686H400.893C397.704 561.686 395.193 564.4 395.464 567.589C398.518 604.911 426.814 639.246 487.207 643.657V664.964C487.207 667.95 489.65 670.393 492.636 670.393H511.907C514.893 670.393 517.336 667.95 517.336 664.896L517.2 643.386C570.332 638.704 608.332 610.271 608.332 559.243C608.264 512.15 578.339 491.114 534.368 480.257ZM487.818 469.264C484.018 468.179 480.829 467.161 477.639 465.871C454.704 457.593 444.05 444.225 444.05 426.989C444.05 402.357 462.711 388.311 487.818 385.121V469.264ZM517.132 607.964V517.239C519.236 517.85 521.136 518.325 523.104 518.732C555.2 528.504 565.989 542.075 565.989 562.907C565.989 589.439 546.039 605.386 517.132 607.964Z"/>
  <path d="M0 260.98L166.422 87.5743L187.555 109.594L21.133 283L0 260.98Z"/>
  <path d="M208 173.406L374.422 0L395.555 22.0198L229.133 195.426L208 173.406Z"/>
  <path d="M228.034 195.775L145.706 109.992L166.839 87.9724L249.167 173.755L228.034 195.775Z"/>
</svg>
