<svg viewBox="0 0 896 896" xmlns="http://www.w3.org/2000/svg">
  <path d="M793.813 767.608L665.587 639.381C685.485 613.657 696.249 582.205 696.249 549.124C696.249 509.526 680.794 472.396 652.848 444.4C624.902 416.405 587.674 401 548.124 401C508.575 401 471.347 416.454 443.4 444.4C415.405 472.347 400 509.526 400 549.124C400 588.674 415.454 625.902 443.4 653.848C471.347 681.844 508.526 697.249 548.124 697.249C581.205 697.249 612.608 686.485 638.332 666.636L766.558 794.813C766.934 795.19 767.381 795.488 767.872 795.692C768.364 795.895 712.968 741.775 713.5 741.775C714.032 741.775 770.481 795.895 770.972 795.692C771.463 795.488 771.91 795.19 772.286 794.813L793.813 773.335C794.19 772.959 794.488 772.513 794.692 772.021C794.895 771.53 743.5 717.826 743.5 717.294C743.5 716.763 794.895 769.413 794.692 768.922C794.488 768.43 794.19 767.984 793.813 767.608ZM626.334 627.334C605.399 648.22 577.651 659.724 548.124 659.724C518.598 659.724 490.85 648.22 469.915 627.334C449.029 606.399 437.525 578.651 437.525 549.124C437.525 519.598 449.029 491.8 469.915 470.915C490.85 450.029 518.598 438.525 548.124 438.525C577.651 438.525 605.449 449.98 626.334 470.915C647.22 491.85 658.724 519.598 658.724 549.124C658.724 578.651 647.22 606.449 626.334 627.334Z"/>
  <path d="M0 11C0 5.47715 4.47715 1 10 1H236C241.523 1 246 5.47715 246 11V63C246 68.5228 241.523 73 236 73H10C4.47716 73 0 68.5228 0 63V11Z"/>
  <path d="M0 168C0 162.477 4.47715 158 10 158H236C241.523 158 246 162.477 246 168V220C246 225.523 241.523 230 236 230H10C4.47716 230 0 225.523 0 220V168Z"/>
  <path d="M0 325C0 319.477 4.47715 315 10 315H236C241.523 315 246 319.477 246 325V377C246 382.523 241.523 387 236 387H10C4.47716 387 0 382.523 0 377V325Z"/>
  <path d="M0 482C0 476.477 4.47715 472 10 472H236C241.523 472 246 476.477 246 482V534C246 539.523 241.523 544 236 544H10C4.47716 544 0 539.523 0 534V482Z"/>
  <path d="M0 639C0 633.477 4.47715 629 10 629H236C241.523 629 246 633.477 246 639V691C246 696.523 241.523 701 236 701H10C4.47716 701 0 696.523 0 691V639Z"/>
  <path d="M497.306 142.579L558.01 203.282L709.292 52L738.599 81.3062L587.316 232.589L587.403 232.675L558.097 261.982L497.01 200.895L400.306 297.599L371 268.292L496.714 142.579L497.01 142.875L497.306 142.579Z"/>
  <path fill-rule="evenodd" clip-rule="evenodd" d="M316 20C316 8.95431 324.954 0 336 0H775C786.046 0 795 8.95431 795 20V331C795 342.046 786.046 351 775 351H336C324.954 351 316 342.046 316 331V20ZM349 37H761V315H349V37Z"/>
</svg>
