<svg xmlns="http://www.w3.org/2000/svg" viewBox="11 14 24 18"><path fill="currentcolor" d="m17 30a1 1 0 0 1 0 4h-4a1 1 0 0 1 0-4m0 1a1 1 0 0 0 0 2h4a1 1 0 0 0 0-2m0-7a1 1 0 0 1 0 4h-4a1 1 0 0 1 0-4m0 1a1 1 0 0 0 0 2h4a1 1 0 0 0 0-2m6 5a1 1 0 0 1 0 4 1 1 0 0 1 0-4m0 1a1 1 0 0 0 0 2 1 1 0 0 0 0-2m0-7a1 1 0 0 1 0 4 1 1 0 0 1 0-4m0 1a1 1 0 0 0 0 2 1 1 0 0 0 0-2m0-7a1 1 0 0 1 0 4 1 1 0 0 1 0-4m0 1a1 1 0 0 0 0 2 1 1 0 0 0 0-2m0-7a1 1 0 0 1 0 4 1 1 0 0 1 0-4m0 1a1 1 0 0 0 0 2 1 1 0 0 0 0-2m10 5a1 1 0 0 1 0 4h-4a1 1 0 0 1 0-4m0 1a1 1 0 0 0 0 2h4a1 1 0 0 0 0-2m0-7a1 1 0 0 1 0 4h-4a1 1 0 0 1 0-4m0 1a1 1 0 0 0 0 2h4a1 1 0 0 0 0-2"></path></svg>
