<svg width="30" height="28" viewBox="0 0 30 28" fill="none" xmlns="http://www.w3.org/2000/svg">
  <path d="M26.3926 20.2835C25.4445 21.8752 24.1511 23.2375 22.6065 24.2714C21.0618 25.3053 19.3046 25.9849 17.4623 26.2608C15.62 26.5368 13.7389 26.4023 11.9556 25.8669C10.1722 25.3315 8.53138 24.4088 7.15209 23.1657C5.7728 21.9227 4.68969 20.3904 3.98138 18.6801C3.27307 16.9699 2.95732 15.1246 3.05706 13.2782C3.1568 11.4318 3.66954 9.63054 4.55804 8.00526C5.44653 6.37998 6.6885 4.97144 8.1938 3.88184" stroke="#E2E5E9" stroke-width="0.5" stroke-miterlimit="10"/>
  <path d="M16 18L16.8288 19.8593L18.8532 20.0729L17.341 21.4357L17.7634 23.4271L16 22.41L14.2366 23.4271L14.659 21.4357L13.1468 20.0729L15.1712 19.8593L16 18Z" fill="url(#paint0_linear_7824_8498)"/>
  <path d="M8.1875 3.88177C10.3333 2.326 12.9229 1.48948 15.5804 1.49367" stroke="url(#paint1_linear_7824_8498)" stroke-width="0.5" stroke-miterlimit="10"/>
  <path d="M28.1347 13.9492C28.1388 16.178 27.5362 18.3666 26.3906 20.2836" stroke="url(#paint2_linear_7824_8498)" stroke-width="0.5" stroke-miterlimit="10"/>
  <path fill-rule="evenodd" clip-rule="evenodd" d="M10.5016 10.5L16 1L21.4984 10.5L19.0471 10.4998L19.0855 10.6195L24 17.4998H21.2924L21.5397 18.2708L28 27.4998H24.5L24.4997 27.499L24.5 27.5H23L16 13.5L9 27.5H7.5L7.50006 27.4998H4L10.4603 18.2708L10.7076 17.4998H8L12.9145 10.6195L12.9529 10.4998L10.5016 10.5Z" fill="url(#paint3_linear_7824_8498)"/>
  <defs>
    <linearGradient id="paint0_linear_7824_8498" x1="13" y1="21.002" x2="19" y2="21.002" gradientUnits="userSpaceOnUse">
      <stop stop-color="#FFEE25"/>
      <stop offset="0.02" stop-color="#FFE920"/>
      <stop offset="0.1" stop-color="#FED60E"/>
      <stop offset="0.19" stop-color="#FDCB04"/>
      <stop offset="0.28" stop-color="#FDC700"/>
      <stop offset="0.67" stop-color="#F08F34"/>
      <stop offset="0.89" stop-color="#E86031"/>
      <stop offset="1" stop-color="#E2312D"/>
    </linearGradient>
    <linearGradient id="paint1_linear_7824_8498" x1="8.1363" y1="2.67925" x2="15.9251" y2="2.67925" gradientUnits="userSpaceOnUse">
      <stop stop-color="white"/>
      <stop offset="0.07" stop-color="#EEEEEE"/>
      <stop offset="0.87" stop-color="#3C3C3B"/>
    </linearGradient>
    <linearGradient id="paint2_linear_7824_8498" x1="27.2678" y1="20.3276" x2="27.2678" y2="13.9492" gradientUnits="userSpaceOnUse">
      <stop stop-color="white"/>
      <stop offset="0.09" stop-color="#EEEEEE"/>
      <stop offset="1" stop-color="#3C3C3B"/>
    </linearGradient>
    <linearGradient id="paint3_linear_7824_8498" x1="4" y1="14.25" x2="28" y2="14.25" gradientUnits="userSpaceOnUse">
      <stop offset="0.02" stop-color="#A2CC39"/>
      <stop offset="0.1" stop-color="#A2CC39"/>
      <stop offset="0.67" stop-color="#388E3C"/>
      <stop offset="1" stop-color="#009D3F"/>
    </linearGradient>
  </defs>
</svg>
