<svg viewBox="0 0 896 896" xmlns="http://www.w3.org/2000/svg">
  <path d="M504.384 518.911C498.302 524.536 488.812 524.165 483.187 518.083L473.003 507.07C467.378 500.988 467.749 491.498 473.831 485.873L556.448 409.472C557.143 408.353 557.998 407.307 559.012 406.369L570.025 396.185C576.107 390.56 585.597 390.931 591.222 397.013L640.434 450.224L724.253 372.711C730.335 367.086 739.825 367.457 745.45 373.539L755.634 384.552C761.259 390.634 760.888 400.124 754.806 405.749L650.242 502.446C645.103 507.198 637.53 507.67 631.912 504.032C629.335 503.309 626.919 501.887 624.968 499.777L578.918 449.984L504.384 518.911Z"/>
  <path fill-rule="evenodd" clip-rule="evenodd" d="M132 264C167.313 264 199.387 250.133 223.075 227.548L356.259 338.206C341.928 371.936 334 409.042 334 448C334 486.486 341.737 523.167 355.741 556.568L222.137 667.566C198.544 645.505 166.849 632 132 632C59.0984 632 0 691.099 0 764C0 836.901 59.0984 896 132 896C204.902 896 264 836.901 264 764C264 742.184 258.708 721.604 249.336 703.474L376.98 597.427C426.707 676.471 514.719 729 615 729C770.192 729 896 603.192 896 448C896 292.808 770.192 167 615 167C515.179 167 427.515 219.049 377.667 297.487L249.933 191.357C258.932 173.514 264 153.349 264 132C264 59.0986 204.902 0 132 0C59.0984 0 0 59.0986 0 132C0 204.901 59.0984 264 132 264ZM132 214C177.287 214 214 177.287 214 132C214 86.7129 177.287 50 132 50C86.7126 50 50 86.7129 50 132C50 177.287 86.7126 214 132 214ZM815 448C815 558.457 725.457 648 615 648C504.543 648 415 558.457 415 448C415 337.543 504.543 248 615 248C725.457 248 815 337.543 815 448ZM214 764C214 809.287 177.287 846 132 846C86.7126 846 50 809.287 50 764C50 718.713 86.7126 682 132 682C177.287 682 214 718.713 214 764Z"/>
</svg>
