<svg viewBox="0 0 896 896" xmlns="http://www.w3.org/2000/svg">
  <path fill-rule="evenodd" clip-rule="evenodd" d="M660 149H792V377.386L791.989 377.842C790.992 421.495 781.641 460.808 748.984 491.586C725.173 514.027 692.121 528.627 651.581 540.402C629.576 604.01 566.567 653.092 488 666.407V774.433C504.716 778.25 520.076 784.448 532.853 792.699C551.7 804.872 563.631 820.676 567.011 837.565C568.094 842.981 563.523 847.5 558 847.5H338C332.477 847.5 327.906 842.981 328.989 837.565C332.369 820.676 344.3 804.872 363.147 792.699C375.924 784.448 391.284 778.25 408 774.433V667.349C326.651 655.568 260.98 605.621 238.418 540.402C197.878 528.627 164.827 514.027 141.016 491.586C108.359 460.808 99.0078 421.495 98.0107 377.842L98 377.386V149H230V100H660V149ZM449.755 203.636C448.258 199.029 441.742 199.029 440.245 203.635L406.833 306.467C406.164 308.527 404.243 309.922 402.077 309.922H293.953C289.11 309.922 287.096 316.12 291.015 318.967L378.488 382.521C380.241 383.794 380.974 386.051 380.305 388.111L346.893 490.942C345.396 495.549 350.668 499.38 354.587 496.533L442.062 432.979C443.814 431.706 446.186 431.706 447.938 432.979L535.413 496.533C539.332 499.38 544.604 495.549 543.107 490.942L509.695 388.111C509.026 386.051 509.759 383.794 511.512 382.521L598.985 318.967C602.904 316.12 600.89 309.922 596.047 309.922H487.923C485.757 309.922 483.836 308.527 483.167 306.467L449.755 203.636ZM178 376.424C178.811 409.684 185.499 423.579 195.885 433.367C202.918 439.996 213.482 446.522 230 453.153V229H178V376.424ZM660 453.153C676.518 446.522 687.082 439.996 694.115 433.367C704.501 423.579 711.189 409.684 712 376.424V229H660V453.153Z"/>
</svg>
