<svg xmlns="http://www.w3.org/2000/svg" viewBox="0 0 14 17"><path d="M13.5 12.8c0-.1-.1-.1-.1-.2-.9-.9-1.5-4.2-1.4-7.1.1-1.5-.3-2.7-1.1-3.6C10 1 8.6.5 7 .5c-.1 0-2.7 0-4.1 1.6-.8.9-1.1 2.1-.9 3.5.6 4.8-.5 6-1.2 6.8-.1.1-.2.2-.2.3v.7s0 .1.1.1c.1.1.2.1.3.1h12.2c.1-.1.2-.1.3-.3v-.5zM2 12.5c.7-1 1.5-2.8.9-7.1-.1-1.1.1-2 .6-2.6C4.8 1.5 7 1.5 7 1.5c.8 0 2.2.1 3.1 1.1.6.7.9 1.6.9 2.9-.1 2.4.3 5.4 1.1 7H2zm7 2.1c-.2-.1-.5 0-.7.2 0 0-.4.7-1.4.7s-1.4-.7-1.4-.7c-.1-.2-.4-.3-.7-.2-.2.1-.3.4-.2.7.2.5 1 1.2 2.3 1.2 1.4 0 2.1-.8 2.3-1.2.1-.3 0-.6-.2-.7z"/></svg>
