<svg viewBox="0 0 896 896" xmlns="http://www.w3.org/2000/svg">
<path fill-rule="evenodd" clip-rule="evenodd" d="M768.918 388.249C768.918 476.14 739.998 557.211 691.244 622.285L794.099 726.624C801.854 734.49 801.825 747.216 794.035 755.047L755.176 794.112C747.386 801.944 734.785 801.915 727.031 794.049L625.324 690.875C559.416 744.44 475.645 776.498 384.459 776.498C172.128 776.498 0 602.673 0 388.249C0 173.825 172.128 0 384.459 0C596.79 0 768.918 173.825 768.918 388.249ZM382.5 703C557.298 703 699 561.298 699 386.5C699 211.702 557.298 70 382.5 70C207.702 70 66 211.702 66 386.5C66 561.298 207.702 703 382.5 703Z"/>
<path d="M600.53 501.742H162.47C160.012 501.742 158 503.705 158 506.104V536.638C158 539.037 160.012 541 162.47 541H600.53C602.988 541 605 539.037 605 536.638V506.104C605 503.705 602.988 501.742 600.53 501.742ZM188.005 433.476L210.187 455.013C211.919 456.704 214.769 456.704 216.501 455.013L347.64 327.478L402.174 380.532C405.534 383.78 410.072 385.603 414.801 385.603C419.531 385.603 424.069 383.78 427.429 380.532L575.051 237.021C576.783 235.33 576.783 232.55 575.051 230.859L552.869 209.267C552.028 208.455 550.894 208 549.712 208C548.529 208 547.395 208.455 546.555 209.267L414.857 337.402L360.267 284.349C356.908 281.1 352.369 279.278 347.64 279.278C342.91 279.278 338.372 281.1 335.012 284.349L188.005 427.314C187.587 427.717 187.255 428.197 187.029 428.726C186.802 429.254 186.685 429.822 186.685 430.395C186.685 430.968 186.802 431.536 187.029 432.065C187.255 432.593 187.587 433.073 188.005 433.476Z"/>
</svg>
