<svg viewBox="0 0 896 896" xmlns="http://www.w3.org/2000/svg">
  <path d="M768 0H32C14.3 0 0 14.3 0 32V768C0 785.7 14.3 800 32 800H768C785.7 800 800 785.7 800 768V32C800 14.3 785.7 0 768 0ZM728 728H72V72H728V728Z"/>
  <path d="M246 342C246 325.431 259.431 312 276 312H626C642.569 312 656 325.431 656 342C656 358.569 642.569 372 626 372H276C259.431 372 246 358.569 246 342Z"/>
  <path d="M517.213 233.213C528.929 221.497 547.924 221.497 559.639 233.213L646.927 320.501C658.643 332.216 658.643 351.211 646.927 362.927C635.211 374.643 616.216 374.643 604.5 362.927L517.213 275.64C505.497 263.924 505.497 244.929 517.213 233.213Z"/>
  <path d="M549.828 456.523C549.944 473.091 536.606 486.616 520.038 486.731L174.161 489.141C157.593 489.256 144.068 475.918 143.953 459.35C143.837 442.782 157.175 429.257 173.743 429.142L519.62 426.733C536.188 426.617 549.713 439.955 549.828 456.523Z"/>
  <path d="M282.679 567.168C271.045 578.965 252.051 579.097 240.254 567.463L152.36 480.786C140.563 469.152 140.431 450.158 152.065 438.36C163.699 426.563 182.693 426.431 194.49 438.065L282.384 524.742C294.181 536.376 294.313 555.371 282.679 567.168Z"/>
</svg>
