<svg viewBox="0 0 896 896" xmlns="http://www.w3.org/2000/svg">
  <path d="M485 40C485 62.0914 467.091 80 445 80C422.909 80 405 62.0914 405 40C405 17.9086 422.909 0 445 0C467.091 0 485 17.9086 485 40Z"/>
  <path d="M350 40C350 62.0914 332.091 80 310 80C287.909 80 270 62.0914 270 40C270 17.9086 287.909 0 310 0C332.091 0 350 17.9086 350 40Z"/>
  <path d="M540 26C540 14.9543 548.954 6 560 6H735C746.046 6 755 14.9543 755 26V60C755 71.0457 746.046 80 735 80H560C548.954 80 540 71.0457 540 60V26Z"/>
  <path d="M0 26C0 14.9543 8.95431 6 20 6H195C206.046 6 215 14.9543 215 26V60C215 71.0457 206.046 80 195 80H20C8.9543 80 0 71.0457 0 60V26Z"/>
  <path d="M485 281C485 303.091 467.091 321 445 321C422.909 321 405 303.091 405 281C405 258.909 422.909 241 445 241C467.091 241 485 258.909 485 281Z"/>
  <path d="M350 281C350 303.091 332.091 321 310 321C287.909 321 270 303.091 270 281C270 258.909 287.909 241 310 241C332.091 241 350 258.909 350 281Z"/>
  <path d="M540 267C540 255.954 548.954 247 560 247H735C746.046 247 755 255.954 755 267V301C755 312.046 746.046 321 735 321H560C548.954 321 540 312.046 540 301V267Z"/>
  <path d="M0 267C0 255.954 8.95431 247 20 247H195C206.046 247 215 255.954 215 267V301C215 312.046 206.046 321 195 321H20C8.9543 321 0 312.046 0 301V267Z"/>
  <path d="M490 522C490 544.091 472.091 562 450 562C427.909 562 410 544.091 410 522C410 499.909 427.909 482 450 482C472.091 482 490 499.909 490 522Z"/>
  <path d="M355 522C355 544.091 337.091 562 315 562C292.909 562 275 544.091 275 522C275 499.909 292.909 482 315 482C337.091 482 355 499.909 355 522Z"/>
  <path d="M545 508C545 496.954 553.954 488 565 488H740C751.046 488 760 496.954 760 508V542C760 553.046 751.046 562 740 562H565C553.954 562 545 553.046 545 542V508Z"/>
  <path d="M5 508C5 496.954 13.9543 488 25 488H200C211.046 488 220 496.954 220 508V542C220 553.046 211.046 562 200 562H25C13.9543 562 5 553.046 5 542V508Z"/>
  <path d="M485 763C485 785.091 467.091 803 445 803C422.909 803 405 785.091 405 763C405 740.909 422.909 723 445 723C467.091 723 485 740.909 485 763Z"/>
  <path d="M350 763C350 785.091 332.091 803 310 803C287.909 803 270 785.091 270 763C270 740.909 287.909 723 310 723C332.091 723 350 740.909 350 763Z"/>
  <path d="M540 749C540 737.954 548.954 729 560 729H735C746.046 729 755 737.954 755 749V783C755 794.046 746.046 803 735 803H560C548.954 803 540 794.046 540 783V749Z"/>
  <path d="M0 749C0 737.954 8.95431 729 20 729H195C206.046 729 215 737.954 215 749V783C215 794.046 206.046 803 195 803H20C8.9543 803 0 794.046 0 783V749Z"/>
</svg>
