<svg viewBox="0 0 896 896" xmlns="http://www.w3.org/2000/svg">
  <path d="M793.813 766.608L665.587 638.381C685.485 612.657 696.249 581.205 696.249 548.124C696.249 508.526 680.794 471.396 652.848 443.4C624.902 415.405 587.674 400 548.124 400C508.575 400 471.347 415.454 443.4 443.4C415.405 471.347 400 508.526 400 548.124C400 587.674 415.454 624.902 443.4 652.848C471.347 680.844 508.526 696.249 548.124 696.249C581.205 696.249 612.608 685.485 638.332 665.636L766.558 793.813C766.934 794.19 767.381 794.488 767.872 794.692C768.364 794.895 712.968 740.775 713.5 740.775C714.032 740.775 770.481 794.895 770.972 794.692C771.463 794.488 771.91 794.19 772.286 793.813L793.813 772.335C794.19 771.959 794.488 771.513 794.692 771.021C794.895 770.53 743.5 716.826 743.5 716.294C743.5 715.763 794.895 768.413 794.692 767.922C794.488 767.43 794.19 766.984 793.813 766.608ZM626.334 626.334C605.399 647.22 577.651 658.724 548.124 658.724C518.598 658.724 490.85 647.22 469.915 626.334C449.029 605.399 437.525 577.651 437.525 548.124C437.525 518.598 449.029 490.8 469.915 469.915C490.85 449.029 518.598 437.525 548.124 437.525C577.651 437.525 605.449 448.98 626.334 469.915C647.22 490.85 658.724 518.598 658.724 548.124C658.724 577.651 647.22 605.449 626.334 626.334Z"/>
  <path d="M0 10C0 4.47715 4.47715 0 10 0H790C795.523 0 800 4.47715 800 10V62C800 67.5228 795.523 72 790 72H9.99999C4.47714 72 0 67.5228 0 62V10Z"/>
  <path d="M0 489C0 483.477 4.47715 479 10 479H290C295.523 479 300 483.477 300 489V541C300 546.523 295.523 551 290 551H10C4.47716 551 0 546.523 0 541V489Z"/>
  <path d="M0 247C0 241.477 4.47715 237 10 237H790C795.523 237 800 241.477 800 247V299C800 304.523 795.523 309 790 309H9.99999C4.47714 309 0 304.523 0 299V247Z"/>
  <path d="M0 731C0 725.477 4.47715 721 10 721H290C295.523 721 300 725.477 300 731V783C300 788.523 295.523 793 290 793H10C4.47716 793 0 788.523 0 783V731Z"/>
</svg>
