<svg viewBox="0 0 896 896" xmlns="http://www.w3.org/2000/svg">
  <path fill-rule="evenodd" clip-rule="evenodd" d="M199.516 20C199.516 8.95428 208.471 0 219.516 0H476.613C487.658 0 496.612 8.95431 496.612 20V113.262H677C688.046 113.262 697 122.217 697 133.262V358H611.617V202.13H206.486V606.39H352V697H20C8.9543 697 0 688.046 0 677V133.262C0 122.217 8.9543 113.262 20 113.262H199.516V20ZM435.625 113.262H261.375V62.275C261.375 56.7522 265.852 52.275 271.375 52.275H425.625C431.148 52.275 435.625 56.7522 435.625 62.275V113.262ZM142.885 202.13H78.4125V606.39H142.885V202.13Z"/>
  <path d="M761.142 732.937L793.813 765.608C794.19 765.984 794.488 766.43 794.692 766.922C794.778 767.129 785.661 757.859 775.1 747.12C770.508 742.45 765.643 737.503 761.142 732.937Z"/>
  <path d="M761.142 732.937L743.5 715.294C743.5 715.085 751.482 723.135 761.142 732.937Z"/>
  <path fill-rule="evenodd" clip-rule="evenodd" d="M713.5 739.775L638.332 664.636C612.608 684.485 581.205 695.249 548.124 695.249C508.526 695.249 471.347 679.844 443.4 651.848C415.454 623.902 400 586.674 400 547.124C400 507.526 415.405 470.347 443.4 442.4C471.347 414.454 508.575 399 548.124 399C587.674 399 624.902 414.405 652.848 442.4C680.794 470.396 696.249 507.526 696.249 547.124C696.249 580.205 685.485 611.657 665.587 637.381L743.5 715.294C743.5 715.542 754.591 727.263 766.448 739.794C780.115 754.238 794.801 769.758 794.692 770.021C794.488 770.513 794.19 770.959 793.813 771.335L772.286 792.813C771.91 793.19 771.463 793.488 770.972 793.692C770.709 793.801 754.408 778.34 739.235 763.949C726.066 751.459 713.747 739.775 713.5 739.775ZM548.124 657.724C577.65 657.724 605.399 646.22 626.334 625.334C647.22 604.448 658.724 576.65 658.724 547.124C658.724 517.598 647.22 489.85 626.334 468.915C605.448 447.98 577.65 436.525 548.124 436.525C518.598 436.525 490.85 448.029 469.915 468.915C449.029 489.8 437.525 517.598 437.525 547.124C437.525 576.65 449.029 604.399 469.915 625.334C490.85 646.22 518.598 657.724 548.124 657.724Z"/>
  <path d="M732.095 758.363C721.772 748.186 713.29 739.775 713.5 739.775L732.095 758.363Z"/>
  <path d="M732.095 758.363C736.898 763.098 742.099 768.216 747.01 773.047C758.317 784.172 768.08 793.778 767.872 793.692C767.381 793.488 766.934 793.19 766.558 792.813L732.095 758.363Z"/>
</svg>
