<svg id="Layer_1" data-name="Layer 1" xmlns="http://www.w3.org/2000/svg" xmlns:xlink="http://www.w3.org/1999/xlink" viewBox="0 0 74.04 82.66"><defs><style>.cls-1,.cls-2,.cls-3{fill:none;stroke-miterlimit:10;stroke-width:0.5px;}.cls-1{stroke:url(#linear-gradient);}.cls-2{stroke:#fff;}.cls-3{stroke:url(#linear-gradient-2);}.cls-4{fill:url(#Orange_Yellow);}.cls-5{fill:url(#Orange_Yellow-2);}</style><linearGradient id="linear-gradient" x1="938.34" y1="505.55" x2="961.16" y2="505.55" gradientUnits="userSpaceOnUse"><stop offset="0" stop-color="#fff"/><stop offset="0.07" stop-color="#eee"/><stop offset="0.87" stop-color="#3c3c3b"/></linearGradient><linearGradient id="linear-gradient-2" x1="994.38" y1="557.65" x2="994.38" y2="538.82" gradientUnits="userSpaceOnUse"><stop offset="0" stop-color="#fff"/><stop offset="0.09" stop-color="#eee"/><stop offset="1" stop-color="#3c3c3b"/></linearGradient><linearGradient id="Orange_Yellow" x1="6.26" y1="41.33" x2="67.78" y2="41.33" gradientUnits="userSpaceOnUse"><stop offset="0" stop-color="#ffee25"/><stop offset="0.02" stop-color="#ffe920"/><stop offset="0.1" stop-color="#fed60e"/><stop offset="0.19" stop-color="#fdcb04"/><stop offset="0.28" stop-color="#fdc700"/><stop offset="0.67" stop-color="#f08f34"/><stop offset="0.89" stop-color="#e86031"/><stop offset="1" stop-color="#e2312d"/></linearGradient><linearGradient id="Orange_Yellow-2" x1="29.19" y1="61.59" x2="44.83" y2="61.59" xlink:href="#Orange_Yellow"/></defs><title>AstrasLogoDarkTheme</title><path class="cls-1" d="M938.49,509.1a36.62,36.62,0,0,1,21.66-7.05h1" transform="translate(-923.13 -497.64)"/><path class="cls-2" d="M991.81,557.52a36.77,36.77,0,1,1-53.32-48.42" transform="translate(-923.13 -497.64)"/><path class="cls-3" d="M996.92,538.82a36.53,36.53,0,0,1-5.11,18.7" transform="translate(-923.13 -497.64)"/><polygon class="cls-4" points="67.78 82.66 53.78 76 37.02 41.18 20.26 76 6.26 82.66 36.7 0 67.78 82.66"/><polygon class="cls-5" points="32.21 69.03 33.12 63.65 29.19 59.85 34.59 59.05 37 54.14 39.43 59.03 44.83 59.8 40.94 63.62 41.87 69 37.03 66.48 32.21 69.03"/></svg>
